<mxfile host="app.diagrams.net" modified="2024-01-24T12:03:53.527Z" agent="Mozilla/5.0 (Windows NT 10.0; Win64; x64) AppleWebKit/537.36 (KHTML, like Gecko) Chrome/120.0.0.0 Safari/537.36 Edg/120.0.0.0" etag="oPR2RKmnQhZ_OROrfeff" version="22.1.20" type="device">
  <diagram name="ページ1" id="qsX5YfaFcHBDhfQnIDAT">
    <mxGraphModel dx="864" dy="521" grid="1" gridSize="10" guides="1" tooltips="1" connect="1" arrows="1" fold="1" page="1" pageScale="1" pageWidth="1169" pageHeight="827" math="0" shadow="0">
      <root>
        <mxCell id="0" />
        <mxCell id="1" parent="0" />
        <mxCell id="VZd6y7I324uqGI26aukI-4" style="edgeStyle=orthogonalEdgeStyle;rounded=0;orthogonalLoop=1;jettySize=auto;html=1;exitX=0.5;exitY=1;exitDx=0;exitDy=0;" edge="1" parent="1" source="VZd6y7I324uqGI26aukI-2" target="VZd6y7I324uqGI26aukI-3">
          <mxGeometry relative="1" as="geometry" />
        </mxCell>
        <mxCell id="VZd6y7I324uqGI26aukI-2" value="即時関数" style="rounded=0;whiteSpace=wrap;html=1;" vertex="1" parent="1">
          <mxGeometry x="40" y="40" width="120" height="60" as="geometry" />
        </mxCell>
        <mxCell id="VZd6y7I324uqGI26aukI-8" style="edgeStyle=orthogonalEdgeStyle;rounded=0;orthogonalLoop=1;jettySize=auto;html=1;exitX=1;exitY=0.5;exitDx=0;exitDy=0;entryX=0;entryY=0.5;entryDx=0;entryDy=0;" edge="1" parent="1" source="VZd6y7I324uqGI26aukI-3" target="VZd6y7I324uqGI26aukI-7">
          <mxGeometry relative="1" as="geometry" />
        </mxCell>
        <mxCell id="VZd6y7I324uqGI26aukI-3" value="wtsetting.jsonの&lt;br&gt;読込" style="rounded=0;whiteSpace=wrap;html=1;" vertex="1" parent="1">
          <mxGeometry x="40" y="180" width="120" height="60" as="geometry" />
        </mxCell>
        <mxCell id="VZd6y7I324uqGI26aukI-6" value="テンプレ取得" style="swimlane;whiteSpace=wrap;html=1;labelPosition=center;verticalLabelPosition=middle;align=left;verticalAlign=middle;" vertex="1" parent="1">
          <mxGeometry x="300" y="30" width="430" height="200" as="geometry" />
        </mxCell>
        <mxCell id="VZd6y7I324uqGI26aukI-10" style="edgeStyle=orthogonalEdgeStyle;rounded=0;orthogonalLoop=1;jettySize=auto;html=1;exitX=1;exitY=0.5;exitDx=0;exitDy=0;entryX=0;entryY=0.5;entryDx=0;entryDy=0;" edge="1" parent="VZd6y7I324uqGI26aukI-6" source="VZd6y7I324uqGI26aukI-7" target="VZd6y7I324uqGI26aukI-9">
          <mxGeometry relative="1" as="geometry" />
        </mxCell>
        <mxCell id="VZd6y7I324uqGI26aukI-7" value="ビルダインポート" style="rounded=0;whiteSpace=wrap;html=1;" vertex="1" parent="VZd6y7I324uqGI26aukI-6">
          <mxGeometry x="40" y="100" width="120" height="60" as="geometry" />
        </mxCell>
        <mxCell id="VZd6y7I324uqGI26aukI-9" value="thenで&lt;br&gt;ビルダにパス渡す" style="rounded=0;whiteSpace=wrap;html=1;" vertex="1" parent="VZd6y7I324uqGI26aukI-6">
          <mxGeometry x="210" y="100" width="120" height="60" as="geometry" />
        </mxCell>
        <mxCell id="VZd6y7I324uqGI26aukI-11" value="ヘッダフッタその他" style="swimlane;whiteSpace=wrap;html=1;align=left;" vertex="1" parent="1">
          <mxGeometry x="310" y="260" width="200" height="200" as="geometry" />
        </mxCell>
        <mxCell id="VZd6y7I324uqGI26aukI-12" value="" style="rounded=0;whiteSpace=wrap;html=1;" vertex="1" parent="VZd6y7I324uqGI26aukI-11">
          <mxGeometry x="40" y="70" width="120" height="60" as="geometry" />
        </mxCell>
      </root>
    </mxGraphModel>
  </diagram>
</mxfile>
